sfk_cyclingleg_x_-0.09_y_-0.05_states
version=1
nRows=13
nColumns=53
inDegrees=yes

# SIMM Motion File Header:
name sfk_cyclingleg_x_-0.09_y_-0.05_states
datacolumns 53
datarows 13
otherdata 1
range 0.85524903 0.85783219
endheader
time	/jointset/bb/crank_angle/value	/jointset/bb/crank_angle/speed	/jointset/spindle/pedal_angle_r/value	/jointset/spindle/pedal_angle_r/speed	/jointset/ground_pelvis/pelvis_tilt/value	/jointset/ground_pelvis/pelvis_tilt/speed	/jointset/ground_pelvis/pelvis_list/value	/jointset/ground_pelvis/pelvis_list/speed	/jointset/ground_pelvis/pelvis_rotation/value	/jointset/ground_pelvis/pelvis_rotation/speed	/jointset/ground_pelvis/pelvis_tx/value	/jointset/ground_pelvis/pelvis_tx/speed	/jointset/ground_pelvis/pelvis_ty/value	/jointset/ground_pelvis/pelvis_ty/speed	/jointset/ground_pelvis/pelvis_tz/value	/jointset/ground_pelvis/pelvis_tz/speed	/jointset/hip_r/hip_angle_r/value	/jointset/hip_r/hip_angle_r/speed	/jointset/hip_r/hip_adduction_r/value	/jointset/hip_r/hip_adduction_r/speed	/jointset/hip_r/hip_rotation_r/value	/jointset/hip_r/hip_rotation_r/speed	/jointset/knee_r/knee_angle_r/value	/jointset/knee_r/knee_angle_r/speed	/jointset/knee_r/tib_tx_r/value	/jointset/knee_r/tib_tx_r/speed	/jointset/knee_r/tib_ty_r/value	/jointset/knee_r/tib_ty_r/speed	/jointset/tib_pat_r/pat_angle_r/value	/jointset/tib_pat_r/pat_angle_r/speed	/jointset/tib_pat_r/pat_tx_r/value	/jointset/tib_pat_r/pat_tx_r/speed	/jointset/tib_pat_r/pat_ty_r/value	/jointset/tib_pat_r/pat_ty_r/speed	/jointset/ankle_r/ankle_angle_r/value	/jointset/ankle_r/ankle_angle_r/speed	/jointset/subtalar_r/subtalar_angle_r/value	/jointset/subtalar_r/subtalar_angle_r/speed	/jointset/mtp_r/mtp_angle_r/value	/jointset/mtp_r/mtp_angle_r/speed	/forceset/bifemlh_r/activation	/forceset/bifemlh_r/fiber_length	/forceset/bifemsh_r/activation	/forceset/bifemsh_r/fiber_length	/forceset/glut_max2_r/activation	/forceset/glut_max2_r/fiber_length	/forceset/vas_int_r/activation	/forceset/vas_int_r/fiber_length	/forceset/med_gas_r/activation	/forceset/med_gas_r/fiber_length	/forceset/tib_ant_r/activation	/forceset/tib_ant_r/fiber_length
      0.85524903	   -420.77298042	   -480.13863232	    426.00071415	    569.07409823	      0.00000000	      0.00000000	     -0.00000000	      0.00000000	     -0.00000000	     -0.00000000	     -0.09000000	     -0.00000000	     -0.05000000	     -0.00000000	      0.00000000	     -0.00000000	     75.98223951	   -147.42298636	      4.27350735	      1.84005799	     -1.82326428	     21.47847052	    -93.22259873	    268.65893449	      0.00335207	      0.04266357	     -0.48705412	      0.09318644	     17.57858630	     -1.04764562	      0.03150846	      0.10595612	     -0.02282935	      0.01178095	     23.00389059	    -33.72232531	     -0.00000000	      0.00000000	     -0.00000000	     -0.00000000	     -0.08467120	      0.13852071	     -0.08467120	      0.15044664	     -0.08467120	      0.15315295	     -0.08467120	      0.15004314	     -0.08467120	      0.13481560	     -0.08467120	      0.11564888
      0.85529797	   -420.79647588	   -480.13863232	    426.02856133	    569.06110062	      0.00000000	      0.00000000	     -0.00000000	      0.00000000	     -0.00000000	     -0.00000000	     -0.09000000	     -0.00000000	     -0.05000000	     -0.00000000	      0.00000000	     -0.00000000	     75.97502393	   -147.48330416	      4.27359738	      1.83953763	     -1.82221323	     21.47889081	    -93.20945127	    268.68755377	      0.00335416	      0.04264180	     -0.48704956	      0.09319679	     17.57853504	     -1.04733525	      0.03151365	      0.10595400	     -0.02282878	      0.01177476	     23.00224086	    -33.70332362	     -0.00000000	      0.00000000	     -0.00000000	     -0.00000000	     -0.08467750	      0.13851888	     -0.08467750	      0.15045123	     -0.08467750	      0.15314974	     -0.08467750	      0.15003607	     -0.08467750	      0.13479188	     -0.08467750	      0.11565035
      0.85543303	   -420.86132158	   -480.13863232	    426.10541414	    569.02526169	      0.00000000	      0.00000000	     -0.00000000	      0.00000000	     -0.00000000	     -0.00000000	     -0.09000000	     -0.00000000	     -0.05000000	     -0.00000000	      0.00000000	     -0.00000000	     75.95509416	   -147.64963792	      4.27384572	      1.83809902	     -1.81931230	     21.48004621	    -93.17315802	    268.76641212	      0.00335992	      0.04258165	     -0.48703697	      0.09322527	     17.57839365	     -1.04647164	      0.03152796	      0.10594808	     -0.02282719	      0.01175764	     22.99769256	    -33.65085625	     -0.00000000	      0.00000000	     -0.00000000	     -0.00000000	     -0.08469488	      0.13851380	     -0.08469488	      0.15046393	     -0.08469488	      0.15314086	     -0.08469488	      0.15001657	     -0.08469488	      0.13478277	     -0.08469488	      0.11565439
      0.85578627	   -421.03092597	   -480.13863232	    426.30640036	    568.93175685	      0.00000000	      0.00000000	     -0.00000000	      0.00000000	     -0.00000000	     -0.00000000	     -0.09000000	     -0.00000000	     -0.05000000	     -0.00000000	      0.00000000	     -0.00000000	     75.90286162	   -148.08372171	      4.27449435	      1.83431932	     -1.81172414	     21.48303671	    -93.07818254	    268.97177374	      0.00337493	      0.04242399	     -0.48700403	      0.09329934	     17.57802440	     -1.04416421	      0.03156538	      0.10593217	     -0.02282304	      0.01171266	     22.98582997	    -33.51346067	     -0.00000000	      0.00000000	     -0.00000000	     -0.00000000	     -0.08474036	      0.13850049	     -0.08474036	      0.15049719	     -0.08474036	      0.15311758	     -0.08474036	      0.14996551	     -0.08474036	      0.13478487	     -0.08474036	      0.11566492
      0.85592267	   -421.09641804	   -480.13863232	    426.38400157	    568.89574007	      0.00000000	      0.00000000	     -0.00000000	      0.00000000	     -0.00000000	     -0.00000000	     -0.09000000	     -0.00000000	     -0.05000000	     -0.00000000	      0.00000000	     -0.00000000	     75.88265124	   -148.25096841	      4.27474445	      1.83285324	     -1.80879373	     21.48417938	    -93.04148875	    269.05072776	      0.00338071	      0.04236298	     -0.48699130	      0.09332776	     17.57788204	     -1.04325432	      0.03157983	      0.10592586	     -0.02282145	      0.01169521	     22.98126228	    -33.46034169	     -0.00000000	      0.00000000	     -0.00000000	     -0.00000000	     -0.08475793	      0.13849533	     -0.08475793	      0.15051007	     -0.08475793	      0.15310856	     -0.08475793	      0.14994578	     -0.08475793	      0.13479053	     -0.08475793	      0.11566898
      0.85617587	   -421.21799009	   -480.13863232	    426.52803865	    568.82901488	      0.00000000	      0.00000000	     -0.00000000	      0.00000000	     -0.00000000	     -0.00000000	     -0.09000000	     -0.00000000	     -0.05000000	     -0.00000000	      0.00000000	     -0.00000000	     75.84507455	   -148.56087519	      4.27520819	      1.83012212	     -1.80335362	     21.48628280	    -92.97334607	    269.19677896	      0.00339142	      0.04224953	     -0.48696766	      0.09338028	     17.57761810	     -1.04153739	      0.03160665	      0.10591390	     -0.02281849	      0.01166271	     22.97280255	    -33.36164342	     -0.00000000	      0.00000000	     -0.00000000	     -0.00000000	     -0.08479053	      0.13848575	     -0.08479053	      0.15053401	     -0.08479053	      0.15309178	     -0.08479053	      0.14990911	     -0.08479053	      0.13480799	     -0.08479053	      0.11567649
      0.85653936	   -421.39251435	   -480.13863232	    426.73478335	    568.73352667	      0.00000000	      0.00000000	     -0.00000000	      0.00000000	     -0.00000000	     -0.00000000	     -0.09000000	     -0.00000000	     -0.05000000	     -0.00000000	      0.00000000	     -0.00000000	     75.79099390	   -149.00451360	      4.27587270	      1.82617956	     -1.79554309	     21.48926250	    -92.87545855	    269.40528632	      0.00340675	      0.04208625	     -0.48693370	      0.09345510	     17.57723997	     -1.03900901	      0.03164514	      0.10589618	     -0.02281426	      0.01161578	     22.96070180	    -33.21974328	     -0.00000000	      0.00000000	     -0.00000000	     -0.00000000	     -0.08483732	      0.13847195	     -0.08483732	      0.15056849	     -0.08483732	      0.15306761	     -0.08483732	      0.14985639	     -0.08483732	      0.13491470	     -0.08483732	      0.11568724
      0.85658953	   -421.41660470	   -480.13863232	    426.76331852	    568.72037373	      0.00000000	      0.00000000	     -0.00000000	      0.00000000	     -0.00000000	     -0.00000000	     -0.09000000	     -0.00000000	     -0.05000000	     -0.00000000	      0.00000000	     -0.00000000	     75.78351625	   -149.06563504	      4.27596431	      1.82563333	     -1.79446489	     21.48967014	    -92.86194076	    269.43396034	      0.00340886	      0.04206367	     -0.48692902	      0.09346537	     17.57718785	     -1.03865410	      0.03165045	      0.10589368	     -0.02281368	      0.01160928	     22.95903553	    -33.20013661	     -0.00000000	      0.00000000	     -0.00000000	     -0.00000000	     -0.08484378	      0.13847004	     -0.08484378	      0.15057325	     -0.08484378	      0.15306427	     -0.08484378	      0.14984911	     -0.08484378	      0.13489036	     -0.08484378	      0.11568872
      0.85672270	   -421.48054257	   -480.13863232	    426.83905009	    568.68549727	      0.00000000	      0.00000000	     -0.00000000	      0.00000000	     -0.00000000	     -0.00000000	     -0.09000000	     -0.00000000	     -0.05000000	     -0.00000000	      0.00000000	     -0.00000000	     75.76365507	   -149.22772020	      4.27620733	      1.82418124	     -1.79160313	     21.49074776	    -92.82605641	    269.50993761	      0.00341446	      0.04200370	     -0.48691657	      0.09349258	     17.57704960	     -1.03770521	      0.03166456	      0.10588700	     -0.02281213	      0.01159199	     22.95461789	    -33.14807592	     -0.00000000	      0.00000000	     -0.00000000	     -0.00000000	     -0.08486093	      0.13846497	     -0.08486093	      0.15058592	     -0.08486093	      0.15305538	     -0.08486093	      0.14982977	     -0.08486093	      0.13488151	     -0.08486093	      0.11569264
      0.85707854	   -421.65139462	   -480.13863232	    427.04139402	    568.59253357	      0.00000000	      0.00000000	     -0.00000000	      0.00000000	     -0.00000000	     -0.00000000	     -0.09000000	     -0.00000000	     -0.05000000	     -0.00000000	      0.00000000	     -0.00000000	     75.71047709	   -149.65986529	      4.27685575	      1.82028419	     -1.78395538	     21.49359700	    -92.73011826	    269.71206312	      0.00342938	      0.04184311	     -0.48688329	      0.09356483	     17.57668080	     -1.03511999	      0.03170223	      0.10586870	     -0.02280802	      0.01154560	     22.94284728	    -33.00879913	     -0.00000000	      0.00000000	     -0.00000000	     -0.00000000	     -0.08490674	      0.13845139	     -0.08490674	      0.15061983	     -0.08490674	      0.15303157	     -0.08490674	      0.14977805	     -0.08490674	      0.13488395	     -0.08490674	      0.11570309
      0.85721944	   -421.71904677	   -480.13863232	    427.12150685	    568.55581585	      0.00000000	      0.00000000	     -0.00000000	      0.00000000	     -0.00000000	     -0.00000000	     -0.09000000	     -0.00000000	     -0.05000000	     -0.00000000	      0.00000000	     -0.00000000	     75.68937780	   -149.83059047	      4.27711212	      1.81873434	     -1.78092682	     21.49471310	    -92.69210987	    269.79173770	      0.00343527	      0.04177939	     -0.48687010	      0.09359325	     17.57653502	     -1.03407634	      0.03171715	      0.10586129	     -0.02280639	      0.01152715	     22.93820019	    -32.95358485	     -0.00000000	      0.00000000	     -0.00000000	     -0.00000000	     -0.08492488	      0.13844600	     -0.08492488	      0.15063330	     -0.08492488	      0.15302212	     -0.08492488	      0.14975755	     -0.08492488	      0.13489006	     -0.08492488	      0.11570722
      0.85747467	   -421.84159430	   -480.13863232	    427.26661294	    568.48943816	      0.00000000	      0.00000000	     -0.00000000	      0.00000000	     -0.00000000	     -0.00000000	     -0.09000000	     -0.00000000	     -0.05000000	     -0.00000000	      0.00000000	     -0.00000000	     75.65109658	   -150.13928338	      4.27757596	      1.81591718	     -1.77544039	     21.49671750	    -92.62323158	    269.93554208	      0.00344592	      0.04166378	     -0.48684621	      0.09364449	     17.57627134	     -1.03215689	      0.03174416	      0.10584761	     -0.02280345	      0.01149361	     22.92980210	    -32.85347453	     -0.00000000	      0.00000000	     -0.00000000	     -0.00000000	     -0.08495775	      0.13843621	     -0.08495775	      0.15065772	     -0.08495775	      0.15300495	     -0.08495775	      0.14972038	     -0.08495775	      0.13490804	     -0.08495775	      0.11571468
      0.85783219	   -422.01325276	   -480.13863232	    427.46984188	    568.39674954	      0.00000000	      0.00000000	     -0.00000000	      0.00000000	     -0.00000000	     -0.00000000	     -0.09000000	     -0.00000000	     -0.05000000	     -0.00000000	      0.00000000	     -0.00000000	     75.59734188	   -150.57046133	      4.27822448	      1.81195011	     -1.76775442	     21.49948794	    -92.52668877	    270.13584795	      0.00346078	      0.04150143	     -0.48681271	      0.09371570	     17.57590281	     -1.02940542	      0.03178200	      0.10582792	     -0.02279935	      0.01144638	     22.91808147	    -32.71304444	     -0.00000000	      0.00000000	     -0.00000000	     -0.00000000	     -0.08500378	      0.13842246	     -0.08500378	      0.15069203	     -0.08500378	      0.15298081	     -0.08500378	      0.14966824	     -0.08500378	      0.13501497	     -0.08500378	      0.11572509
